# Blender v2.83.5 OBJ File: 'box_with_monkey.blend'
# www.blender.org
mtllib box_main.mtl
o Cube.001
v -2.490704 2.525114 10.143677
v -2.490704 -2.454883 -7.636322
v -2.490704 -2.454886 10.143677
v -2.490704 2.525117 -7.636322
v 2.509296 -2.454883 -7.636322
v 2.509296 2.525117 -7.636322
v 2.509296 -2.454886 10.143677
v 2.509296 2.525114 10.143677
vt 0.625000 0.250000
vt 0.375000 0.500000
vt 0.375000 0.250000
vt 0.625000 0.750000
vt 0.375000 1.000000
vt 0.375000 0.750000
vt 0.125000 0.750000
vt 0.125000 0.500000
vt 0.875000 0.500000
vt 0.625000 0.500000
vt 0.625000 1.000000
vt 0.875000 0.750000
vn 0.0000 0.0000 -1.0000
vn 0.0000 0.0000 1.0000
vn 0.0000 -1.0000 -0.0000
vn 0.0000 1.0000 0.0000
usemtl None
s off
f 4/1/1 5/2/1 2/3/1
f 8/4/2 3/5/2 7/6/2
f 5/2/3 3/7/3 2/8/3
f 4/9/4 8/4/4 6/10/4
f 4/1/1 6/10/1 5/2/1
f 8/4/2 1/11/2 3/5/2
f 5/2/3 7/6/3 3/7/3
f 4/9/4 1/12/4 8/4/4
