# Blender v2.83.5 OBJ File: ''
# www.blender.org
mtllib box_rot_sm.mtl
o Cube.001
v 0.946945 0.597289 1.635322
v -0.304053 1.077502 1.635322
v -0.516070 0.525179 2.837648
v 0.734928 0.044966 2.837648
v 0.304053 -1.077502 2.246030
v -0.946945 -0.597289 2.246030
v -0.734928 -0.044967 1.043705
v 0.516070 -0.525180 1.043705
vt 0.625000 0.500000
vt 0.875000 0.500000
vt 0.875000 0.750000
vt 0.625000 0.750000
vt 0.375000 0.750000
vt 0.625000 1.000000
vt 0.375000 1.000000
vt 0.375000 0.000000
vt 0.625000 0.000000
vt 0.625000 0.250000
vt 0.375000 0.250000
vt 0.125000 0.500000
vt 0.375000 0.500000
vt 0.125000 0.750000
vn 0.3215 0.8377 0.4415
vn -0.1582 -0.4122 0.8973
vn -0.9336 0.3584 0.0000
vn -0.3215 -0.8377 -0.4415
vn 0.9336 -0.3584 -0.0000
vn 0.1582 0.4122 -0.8973
usemtl Material.001
s 1
f 1/1/1 2/2/1 3/3/1 4/4/1
f 5/5/2 4/4/2 3/6/2 6/7/2
f 6/8/3 3/9/3 2/10/3 7/11/3
f 7/12/4 8/13/4 5/5/4 6/14/4
f 8/13/5 1/1/5 4/4/5 5/5/5
f 7/11/6 2/10/6 1/1/6 8/13/6
